# xmcd
#
# Track frame offsets: 
#        150
#        28759
#        52645
#        79470
#        98518
#        129343
#        150013
#        181893
#        197266
#
# Disc length: 3180 seconds
#
# Revision: 1
# Processed by: cddbd v1.5.2PL0 Copyright (c) Steve Scherf et al.
# Submitted via: ExactAudioCopy v0.95a5
#
DISCID=570c6a09
DTITLE=Cree - za tych...
DYEAR=1900
DGENRE=Blues
TTITLE0=za tych...
TTITLE1=taki bylem taki !
TTITLE2=to male cos
TTITLE3=gdzies wyjechac
TTITLE4=po co wiecej mi
TTITLE5=nie ma nocy i slonca
TTITLE6=dzieki skladam wam
TTITLE7=bialy czas
TTITLE8=nie ja pierwszy
EXTD=
EXTT0=
EXTT1=
EXTT2=
EXTT3=
EXTT4=
EXTT5=
EXTT6=
EXTT7=
EXTT8=
PLAYORDER=
